HIERARCHY
ROOT root
{
	OFFSET	0	13.1	24.9
	CHANNELS 6  Xposition Yposition Zposition Xrotation Yrotation Zrotation
	JOINT spine_1
	{
		OFFSET	0	9.99999	0
		CHANNELS 3  Xrotation Yrotation Zrotation
		JOINT spine_2
		{
			OFFSET	0	112	-10
			CHANNELS 3  Xrotation Yrotation Zrotation
			JOINT spine_3
			{
				OFFSET	0	206.5	19.3
				CHANNELS 3  Xrotation Yrotation Zrotation
				JOINT spine_4
				{
					OFFSET	0	110.4	14.6
					CHANNELS 3  Xrotation Yrotation Zrotation
					JOINT neck_1
					{
						OFFSET	0	71.8	-50.3
						CHANNELS 3  Xrotation Yrotation Zrotation
						JOINT neck_2
						{
							OFFSET	0	86.2	-25.8
							CHANNELS 3  Xrotation Yrotation Zrotation
							JOINT head_ee
							{
								OFFSET	0	179.8	-8.7
								CHANNELS 3  Xrotation Yrotation Zrotation
								End Site
								{
									OFFSET	1	0	0
								}
							}
						}
					}
					JOINT left_clavicle
					{
						OFFSET	-43.2	22.4	-70.8
						CHANNELS 3  Xrotation Yrotation Zrotation
						JOINT left_shoulder
						{
							OFFSET	-93.9	-5.79999	48.7
							CHANNELS 3  Xrotation Yrotation Zrotation
							JOINT left_elbow
							{
								OFFSET	-291.4	-30.8	15.2
								CHANNELS 3  Xrotation Yrotation Zrotation
								JOINT left_lowarm_twist
								{
									OFFSET	-110.7	-3.89999	13.6
									CHANNELS 3  Xrotation Yrotation Zrotation
									JOINT left_hand
									{
										OFFSET	-110.7	-3.89999	13.6
										CHANNELS 3  Xrotation Yrotation Zrotation
										JOINT left_ee
										{
											OFFSET	-80.8	-5.10001	12.1
											CHANNELS 3  Xrotation Yrotation Zrotation
											End Site
											{
												OFFSET	1	0	0
											}
										}
									}
								}
							}
						}
					}
					JOINT right_clavicle
					{
						OFFSET	43.2	22.4	-70.8
						CHANNELS 3  Xrotation Yrotation Zrotation
						JOINT right_shoulder
						{
							OFFSET	93.9	-5.79999	48.7
							CHANNELS 3  Xrotation Yrotation Zrotation
							JOINT right_elbow
							{
								OFFSET	291.4	-30.8	15.2
								CHANNELS 3  Xrotation Yrotation Zrotation
								JOINT right_lowarm_twist
								{
									OFFSET	110.7	-3.89999	13.6
									CHANNELS 3  Xrotation Yrotation Zrotation
									JOINT right_hand
									{
										OFFSET	110.7	-3.89999	13.6
										CHANNELS 3  Xrotation Yrotation Zrotation
										JOINT right_ee
										{
											OFFSET	80.8	-5.10001	12.1
											CHANNELS 3  Xrotation Yrotation Zrotation
											End Site
											{
												OFFSET	1	0	0
											}
										}
									}
								}
							}
						}
					}
				}
			}
		}
	}
	JOINT left_hip
	{
		OFFSET	-82.8	-127.5	0.300001
		CHANNELS 3  Xrotation Yrotation Zrotation
		JOINT left_knee
		{
			OFFSET	-28.2	-396.7	2.2
			CHANNELS 3  Xrotation Yrotation Zrotation
			JOINT left_ankle
			{
				OFFSET	-11.7	-411.3	35.4
				CHANNELS 3  Xrotation Yrotation Zrotation
				JOINT left_toes
				{
					OFFSET	0	-60	-88.6
					CHANNELS 3  Xrotation Yrotation Zrotation
					JOINT left_foot_ee
					{
						OFFSET	-22.5	-16.5	-42.2
						CHANNELS 3  Xrotation Yrotation Zrotation
						End Site
						{
							OFFSET	1	0	0
						}
					}
				}
			}
		}
	}
	JOINT right_hip
	{
		OFFSET	82.8	-127.5	0.300001
		CHANNELS 3  Xrotation Yrotation Zrotation
		JOINT right_knee
		{
			OFFSET	28.2	-396.7	2.2
			CHANNELS 3  Xrotation Yrotation Zrotation
			JOINT right_ankle
			{
				OFFSET	11.7	-411.3	35.4
				CHANNELS 3  Xrotation Yrotation Zrotation
				JOINT right_toes
				{
					OFFSET	0	-60	-88.6
					CHANNELS 3  Xrotation Yrotation Zrotation
					JOINT right_foot_ee
					{
						OFFSET	22.5	-16.5	-42.2
						CHANNELS 3  Xrotation Yrotation Zrotation
						End Site
						{
							OFFSET	1	0	0
						}
					}
				}
			}
		}
	}
}
MOTION
Frames: 5
Frame Time: 0.02
5.22748 694.88 -1423.8 153.299 -75.2875 147.015 -4.6113 0.240765 0.447923 -4.61121 0.211775 0.462335 -4.60924 0.0696221 0.50374 -4.60957 0.148304 0.486423 4.88825 -7.77242 6.84627 5.62346 -19.2825 7.55514 -0.0 0.0 -0.0 12.2521 -26.6708 23.8791 87.6297 64.5302 -5.02667 0.188632 -5.3385 0.00879416 67.5814 -2.49334 -7.76098 -3.1831 -4.09428 -23.8492 -0.0 0.0 -0.0 12.5781 16.169 -25.4821 -31.7111 42.6575 -33.9803 0.747108 20.3093 -0.133817 15.179 -0.282931 1.91268 -1.50655 5.33618 12.5172 0.0 0.0 0.0 5.22809 43.8252 0.333907 -5.62381 0.190357 0.841752 24.1438 -4.06378 -3.28889 -3.96027 0.0 0.0 -0.0 0.0 -0.0 10.9138 -6.10642 14.3306 -29.9581 -0.0456692 -4.54521 -1.55463 -17.9398 -0.231472 33.5361 -0.0 -0.0 0.0 0.0 0.0 
16.354 691.631 -1428.28 149.561 -76.0297 143.084 -4.73543 0.0504591 0.494615 -4.7353 0.0188836 0.496823 -4.73491 -0.12609 0.480928 -4.73522 -0.0485552 0.494805 4.73561 -5.83194 5.1469 5.13898 -14.4931 5.61155 -0.0 0.0 -0.0 11.0557 -25.4769 21.2934 83.4233 68.0306 -1.04494 0.269848 -7.61404 0.0179565 67.1062 -2.44576 -7.72288 -3.01283 -2.74046 -21.9382 -0.0 0.0 -0.0 11.8979 14.4538 -23.9823 -29.6827 42.4635 -35.5773 0.762233 20.6859 -0.139113 16.3073 -0.283586 2.05679 -1.48987 5.85276 12.6317 0.0 0.0 0.0 3.52989 46.7323 1.09117 -4.93083 0.171381 0.737096 30.4767 -11.1439 -4.12268 -2.89528 0.0 0.0 -0.0 0.0 -0.0 10.3052 -5.96512 15.5284 -32.2261 0.047619 -4.88074 1.07797 -17.7395 0.159466 34.5358 -0.0 -0.0 0.0 0.0 0.0 
21.1214 692.218 -1432.82 147.809 -76.5886 141.519 -4.77151 0.00946632 0.422945 -4.77141 -0.0174657 0.422691 -4.77139 -0.139619 0.399348 -4.77161 -0.0747981 0.416386 4.81981 -4.23863 4.5109 5.07879 -11.206 4.95193 -0.0 0.0 -0.0 11.6072 -26.3988 22.4414 82.1395 68.1568 -1.59987 0.320138 -9.01152 0.0252279 67.6477 -2.50001 -7.76627 -3.28311 -0.857709 -22.9576 -0.0 0.0 -0.0 11.5199 14.8959 -23.1083 -29.2664 41.5874 -36.2835 0.774275 20.9844 -0.143397 16.4655 -0.28345 2.077 -1.41158 5.96519 12.1409 0.0 0.0 0.0 3.4564 45.778 1.06229 -5.11634 0.176585 0.765091 31.3477 -10.4982 -4.20212 -2.59746 0.0 0.0 -0.0 0.0 -0.0 9.79823 -5.01615 15.4007 -32.4855 0.0591341 -4.91888 -1.1795 -19.436 -0.176307 33.6007 -0.0 -0.0 0.0 0.0 0.0 
24.0788 692.012 -1433.41 146.246 -76.551 139.95 -4.97912 0.104523 0.573907 -4.97894 0.0677923 0.579395 -4.97791 -0.105678 0.573695 -4.97837 -0.0137492 0.583185 4.67897 -2.27915 4.2664 4.83066 -7.63127 4.74677 -0.0 0.0 -0.0 11.3165 -25.481 21.8833 78.7909 66.975 0.764009 0.224483 -6.34551 0.0124435 67.4217 -2.47731 -7.74822 -3.2439 0.35841 -22.0486 -0.0 0.0 -0.0 11.4639 14.7427 -22.9866 -30.5117 42.0918 -35.618 0.818264 22.0647 -0.159537 16.3372 -0.283564 2.06061 -1.71787 6.45412 14.4816 0.0 0.0 0.0 2.82454 46.811 1.03269 -4.97396 0.172599 0.743604 31.6494 -10.3336 -4.23057 -2.69323 0.0 0.0 -0.0 0.0 -0.0 9.31455 -3.81656 15.1571 -33.2623 0.0946489 -5.03276 -1.39625 -20.5821 -0.209657 33.4418 -0.0 -0.0 0.0 0.0 0.0 
26.8749 693.698 -1433.66 144.816 -77.2256 138.319 -4.94677 0.134977 0.72368 -4.94649 0.0886556 0.730801 -4.9448 -0.129868 0.724614 -4.94553 -0.0138026 0.736029 4.33854 -0.266535 4.69755 4.44313 -4.53603 5.31558 -0.0 0.0 -0.0 10.8674 -26.047 20.8066 83.0124 67.8879 -4.07413 0.230774 -6.52181 0.0131484 67.1402 -2.44915 -7.72562 -3.6455 2.59156 -23.7757 -0.0 0.0 -0.0 12.1355 15.4572 -24.4916 -31.0827 40.2244 -35.9106 0.878292 23.5126 -0.18279 15.8989 -0.283677 2.00463 -1.69452 8.19476 15.0915 0.0 0.0 0.0 2.11784 46.0766 1.85975 -4.19031 0.149705 0.625518 31.5142 -10.8268 -4.22699 -1.95556 0.0 0.0 -0.0 0.0 -0.0 9.55266 -3.03777 15.3451 -33.7155 0.116087 -5.099 -3.78067 -21.7993 -0.573108 32.5858 -0.0 -0.0 0.0 0.0 0.0 
